<?xml version="1.0" encoding="utf-8"?>
<!-- Generator: Adobe Illustrator 22.1.0, SVG Export Plug-In . SVG Version: 6.00 Build 0)  -->
<svg version="1.1" id="Ebene_1" xmlns="http://www.w3.org/2000/svg" xmlns:xlink="http://www.w3.org/1999/xlink" x="0px" y="0px"
	 viewBox="0 0 841.9 595.3" style="enable-background:new 0 0 841.9 595.3;" xml:space="preserve">
<style type="text/css">
	.st0{fill:#95C11F;}
</style>
<path class="st0" d="M536.1,227.6c0-1.3-4.6-0.4-6.2,0.3c-9.3,28.8-22.5,50.8-35.1,69.7c-1.5-0.8-3.5-1.4-5.5-1.8
	c16.1-20.8,27.4-56.3,27.4-79.7c0-17.2-6.4-27.9-21.9-20.4c-17,8.2-19.9,33.2-29.4,63.2v0c-6.6,20.2-15.2,45.1-21.2,47.9
	c-2.9,1.4-4.4-2.7-4.4-12c0-8.2,1.1-20.2,3.3-36.5c2.7-10.3,4.9-20,6.9-29.4c4-1.9,8.2-3.9,9.1-4.6l2-11.3c-2,1.2-5.1,2.9-8.6,4.6
	c3.8-19.5,6-37.4,7.1-56l-15.7,7.5c-5.1,24.8-8,41-10.8,57.6c-4.6,2.2-8.4,3.8-10,4.6l-1.5,11.1c0.9-0.2,4.6-2,9.7-4.4
	c-3,14.7-5.1,28.8-6.3,41.2c-8.4,26.1-19.1,44.6-32,50.8c-10.2,4.9-13.9-3.9-13.9-17.2c0-1.1,0-2.2,0-3.3
	c26.1-16.7,39.3-44.3,39.3-60c0-10.2-5.5-15.5-16.6-10.2c-20.3,9.7-35.1,41.6-39.8,69.3c0,0,0,0,0,0c-7.3,23-17.9,40.2-35.6,51.1
	c1.5-11.1,3.3-23,5.5-35.4c12.2-22.6,41.3-81.3,41.3-127.3c0-11.3-7.1-14.1-14.8-10.4c-6.6,3.2-13.7,11-17.9,22.3
	c-11.9,32.9-34.7,152.4-34.7,200.4c0,25.6,10.4,25.3,20.6,20.4c11.7-5.6,19.9-23,19.9-38.9c0-10.6-3.8-20.5-12.6-25.6
	c12-9.6,20.3-22,26.8-36.4c0.7,19.1,8.8,31.3,27.1,22.5c16.7-8,27.1-26.7,36-50.5c0,0.5,0,0.9,0,1.4c0,18.8,4,28.8,13.7,24.2
	c14.4-6.9,21.2-25.7,34.3-67.3c9.1-28,11.9-41.5,19.7-45.3c3.1-1.5,5.5,0,5.5,7.1c0,17.7-9.5,59.6-19.5,76.8
	c-1.1,0.3-2.2,0.8-3.3,1.4c-1.8,0.8-5.3,3-7.1,4.1l-0.7,9.4c2-0.3,4-1,6.2-2.1c2.4-1.2,4.9-2.8,7.1-4.5c1.8,1.8,3.1,4.7,4,8.3
	c-12.2,18-23.9,36-23.9,52.1c0,8.8,5.3,12.5,13.5,8.6c19.2-9.2,30.3-35.3,30.3-55.2c0-7.3-1.5-13.6-4.6-18.1
	C512,280.7,526.6,256.9,536.1,227.6z M399.9,253.8c2.2-1.1,3.5,0.5,3.5,3.8c0,8.2-7.3,26.9-23.9,43.1
	C382.3,281,390.9,258.1,399.9,253.8z M361,199.7c1.3-0.6,2.2,0.7,2.2,3.8c-0.2,26.9-16.1,70.7-27,96.1
	C345.6,250,356.6,201.8,361,199.7z M335.4,399.2c0,8.4-2.9,16.4-7.5,18.6c-3.8,1.8-5.3-3.9-5.3-14.5c0-7.3,0.7-16.5,1.8-27.2
	C332.1,380.3,335.4,390,335.4,399.2z M473.8,365.4c-2.9,1.4-4.2,0-4.2-3.3c0-9.3,6.4-24.5,15.5-39c0,1.8,0.2,3.2,0.2,5
	C485.3,343.7,480.6,362.1,473.8,365.4z"/>
</svg>
