<?xml version="1.0" standalone="no"?>
<!DOCTYPE svg PUBLIC "-//W3C//DTD SVG 20010904//EN"
 "http://www.w3.org/TR/2001/REC-SVG-20010904/DTD/svg10.dtd">
<svg version="1.0" xmlns="http://www.w3.org/2000/svg"
 width="260.000000pt" height="260.000000pt" viewBox="0 0 260.000000 260.000000"
 preserveAspectRatio="xMidYMid meet">
<metadata>
Created by potrace 1.11, written by Peter Selinger 2001-2013
</metadata>
<g transform="translate(0.000000,260.000000) scale(0.100000,-0.100000)"
fill="#000000" stroke="none">
<path d="M1945 1567 c-49 -23 -62 -46 -56 -109 2 -30 43 -57 103 -69 73 -14
103 -36 94 -67 -14 -43 -112 -46 -146 -4 -11 14 -22 17 -37 11 -30 -11 -34
-23 -17 -47 46 -66 193 -69 244 -5 26 33 26 83 -1 116 -19 25 -54 39 -128 52
-19 3 -38 8 -43 11 -11 7 -10 52 2 59 21 13 91 7 109 -9 15 -14 23 -15 45 -5
34 16 33 23 -6 50 -38 28 -120 35 -163 16z"/>
<path d="M1603 1555 c-22 -17 -2 -26 33 -16 49 14 120 -13 149 -57 33 -51 34
-162 1 -184 -26 -17 -109 -8 -151 17 -73 42 -102 144 -64 218 11 21 10 21 -16
-3 -143 -130 22 -357 195 -268 82 42 110 120 75 205 -18 42 -47 70 -93 90 -38
16 -106 15 -129 -2z"/>
<path d="M440 1395 l0 -165 30 0 30 0 0 65 0 65 80 0 80 0 0 -65 0 -65 30 0
30 0 0 165 0 165 -30 0 -30 0 0 -70 0 -70 -80 0 -80 0 0 70 0 70 -30 0 -30 0
0 -165z"/>
<path d="M800 1395 l0 -165 120 0 120 0 0 30 c0 33 5 32 -107 32 l-73 1 0 36
0 37 85 -1 85 -2 0 32 0 32 -85 -1 -85 -1 0 37 0 38 90 0 90 0 0 30 0 30 -120
0 -120 0 0 -165z"/>
<path d="M1110 1395 l0 -165 115 0 115 0 0 31 0 30 -57 -1 c-32 -1 -70 -1 -86
-1 l-27 1 1 78 c1 42 1 103 0 135 -1 56 -1 57 -31 57 l-30 0 0 -165z"/>
<path d="M1380 1395 l0 -165 30 0 30 0 0 165 0 165 -30 0 -30 0 0 -165z"/>
<path d="M1660 1516 c0 -9 -6 -16 -12 -16 -7 0 -5 -5 5 -11 9 -5 17 -18 18
-27 0 -10 3 -12 6 -4 2 6 13 12 22 12 14 0 17 6 13 25 -2 14 -8 25 -12 25 -5
0 -15 3 -24 6 -11 4 -16 1 -16 -10z"/>
<path d="M1732 1429 c-8 -12 -8 -19 -2 -19 6 0 15 -10 20 -22 5 -13 9 -17 9
-10 1 6 9 12 19 12 15 0 18 6 14 28 -4 33 -42 40 -60 11z"/>
<path d="M1655 1410 c3 -5 -2 -16 -11 -24 -8 -9 -11 -16 -6 -16 5 0 14 -10 20
-22 6 -13 11 -17 11 -10 1 6 8 12 16 12 26 0 18 44 -10 57 -14 6 -23 7 -20 3z"/>
<path d="M629 1197 c-37 -28 -50 -87 -26 -118 31 -40 99 -48 128 -13 15 18 9
18 -26 0 -34 -18 -78 -5 -92 27 -27 64 31 123 92 91 38 -19 44 -17 16 6 -26
22 -68 26 -92 7z"/>
<path d="M1849 1186 c-58 -60 -12 -155 69 -143 31 5 60 31 68 62 20 79 -81
139 -137 81z m79 3 c38 -13 57 -57 40 -94 -14 -31 -60 -48 -92 -34 -51 24 -53
103 -3 127 12 6 22 11 23 11 1 1 15 -4 32 -10z"/>
<path d="M467 1187 c-21 -17 -28 -44 -14 -55 7 -6 31 -15 55 -22 36 -9 43 -15
40 -33 -3 -19 -9 -22 -51 -22 -51 0 -64 -10 -19 -16 43 -6 71 1 82 21 16 30 1
49 -49 64 -52 15 -66 41 -29 55 12 4 35 5 50 0 16 -4 28 -4 28 2 0 5 -10 9
-22 10 -13 0 -31 2 -40 4 -9 2 -23 -2 -31 -8z"/>
<path d="M770 1118 c0 -45 3 -78 7 -74 4 4 7 19 8 34 0 24 4 27 35 28 58 1 72
-6 67 -33 -2 -13 0 -26 4 -29 5 -3 9 31 9 75 0 45 -4 81 -8 81 -4 0 -6 -16 -4
-36 5 -44 -3 -50 -61 -46 l-45 4 2 39 c0 21 -2 39 -6 39 -5 0 -8 -37 -8 -82z"/>
<path d="M940 1120 l0 -80 53 1 c36 0 46 3 32 8 -11 5 -23 7 -28 4 -4 -2 -16
-2 -27 2 -17 5 -19 14 -16 76 1 38 -2 69 -6 69 -4 0 -8 -36 -8 -80z"/>
<path d="M1120 1196 c0 -2 -16 -38 -35 -80 -19 -42 -30 -76 -25 -76 5 0 12 9
15 20 5 16 15 20 55 20 40 0 50 -4 55 -20 3 -11 10 -20 15 -20 5 0 -6 34 -25
76 -19 42 -35 78 -35 80 0 2 -4 4 -10 4 -5 0 -10 -2 -10 -4z m30 -56 c11 -22
19 -41 18 -41 -9 -5 -78 -5 -76 0 2 3 10 23 18 44 8 20 15 37 17 37 1 0 12
-18 23 -40z"/>
<path d="M1230 1119 c0 -44 4 -78 9 -75 4 3 6 17 3 31 -4 24 -2 25 44 25 26 0
44 3 40 7 -4 4 -22 6 -40 5 -36 -4 -44 6 -42 48 1 22 5 25 44 26 64 2 64 14
-1 14 l-57 0 0 -81z"/>
<path d="M1380 1122 l0 -82 53 1 c32 0 45 3 33 8 -10 4 -31 6 -46 5 l-29 -2 2
69 c1 37 -2 71 -6 75 -4 4 -7 -29 -7 -74z"/>
<path d="M1528 1123 c-20 -43 -33 -80 -31 -83 4 -4 19 16 26 34 4 11 91 9 95
-2 6 -16 21 -36 25 -32 5 6 -66 160 -74 160 -3 0 -22 -35 -41 -77z m61 17 c5
-17 11 -33 13 -37 2 -4 -14 -7 -34 -9 -21 -1 -38 0 -38 2 0 11 35 74 41 74 4
0 12 -14 18 -30z"/>
<path d="M1670 1120 l0 -80 49 0 c56 0 81 17 81 55 0 14 -9 29 -20 35 -11 6
-17 16 -14 25 10 25 -16 45 -57 45 l-39 0 0 -80z m79 56 c15 -18 -9 -39 -41
-34 -35 5 -33 43 2 46 15 1 33 -4 39 -12z m32 -68 c10 -18 8 -24 -11 -40 -14
-12 -35 -18 -53 -16 -27 3 -31 7 -33 41 l-4 37 45 0 c35 0 47 -4 56 -22z"/>
<path d="M2020 1120 c0 -44 4 -80 9 -80 4 0 6 11 3 25 -4 22 -1 25 28 25 22 0
38 -8 52 -25 11 -14 24 -25 29 -25 6 0 1 12 -11 27 -11 14 -17 29 -12 32 17
11 32 50 26 66 -9 23 -37 35 -83 35 l-41 0 0 -80z m99 56 c13 -8 14 -35 3 -54
-10 -15 -64 -23 -81 -13 -10 7 -11 47 -2 79 2 6 68 -5 80 -12z"/>
</g>
</svg>
